<svg xmlns="http://www.w3.org/2000/svg" width="189.873" height="91.411" viewBox="0 0 189.873 91.411">
  <g id="Group_1" data-name="Group 1" transform="translate(-42.204 -26.61)">
    <path id="Path_1" data-name="Path 1" d="M170.362,44.4c-.021.056-.035.112-.056.169.168.077.337.168.505.245,1.51.632,3.033,1.222,4.521,1.9a52.639,52.639,0,0,1,13.725,8.515c4.065,3.644,7.035,7.934,7.765,13.494.07.533.386.547.793.54H212.1c.211-.007.421-.042.653-.07a3.184,3.184,0,0,0-.035-.372c-.084-.316-.169-.632-.267-.941a17.338,17.338,0,0,0-5.013-7.245,49.867,49.867,0,0,0-13.107-8.368A111.807,111.807,0,0,0,173.4,45.115c-1.011-.253-2.022-.477-3.033-.716M58.2,69.181a2.866,2.866,0,0,0,.435.07c4.957.007,9.913,0,14.869.014.45,0,.6-.189.674-.6a27.538,27.538,0,0,1,.66-3.018c1.39-4.564,4.29-8.088,7.87-11.1a59.7,59.7,0,0,1,16.112-9.2c.61-.253,1.228-.5,1.846-.744a.969.969,0,0,0-.723-.056c-1.39.337-2.787.667-4.177,1.025A103.166,103.166,0,0,0,73.551,53.8a40.344,40.344,0,0,0-11.745,8.607A14.2,14.2,0,0,0,58.2,69.181m43.245,29.64c.007-.07.021-.148.028-.218-.112-.049-.217-.091-.33-.14-2.667-1.173-5.377-2.247-7.989-3.538a44.441,44.441,0,0,1-12.931-9.134A21.038,21.038,0,0,1,74.19,73.884c-.077-.631-.407-.68-.912-.68-4.753.014-9.506.006-14.266.006-.238,0-.484.029-.772.043.021.21.028.358.056.5a15.851,15.851,0,0,0,4.451,7.491A45.84,45.84,0,0,0,75.482,90.01a109.443,109.443,0,0,0,22.76,8.06c1.067.259,2.134.5,3.2.751m68.048-.176c.008.043.015.092.022.134a6.346,6.346,0,0,0,.652-.085A134.893,134.893,0,0,0,186,94.068a72.155,72.155,0,0,0,18.078-9.225,25.535,25.535,0,0,0,7.111-7.406,11.475,11.475,0,0,0,1.573-4.128,1.6,1.6,0,0,0-.344-.091c-5.006,0-10.011-.008-15.017.014a.826.826,0,0,0-.547.512c-.2.772-.288,1.587-.492,2.359a22.655,22.655,0,0,1-6.613,10.622,52.869,52.869,0,0,1-14.757,9.533c-1.818.836-3.671,1.594-5.5,2.387M78.634,73.26A4.852,4.852,0,0,0,78.81,74.3a32.793,32.793,0,0,0,1.93,4.563C83,82.7,86.406,85.419,90.1,87.785a84.552,84.552,0,0,0,18.7,8.494c1.579.534,3.18,1.025,4.773,1.538l.169-.232a3.824,3.824,0,0,1-.5-.3A31.781,31.781,0,0,1,101.485,74.1c-.035-.66-.21-.906-.912-.9-7.021.021-14.041.013-21.054.013-.267,0-.534.036-.885.05m113.709,0c-.372-.021-.688-.05-1.011-.05H170.741c-1.172,0-1.165,0-1.257,1.166A33.937,33.937,0,0,1,158.427,97.15a4.575,4.575,0,0,1-.638.421c.07.077.147.148.217.225a123.073,123.073,0,0,0,14.581-5.455,56.428,56.428,0,0,0,11.745-6.88,22.921,22.921,0,0,0,6.649-7.694,12.361,12.361,0,0,0,1.362-4.507M114.073,44.2c-.351.084-.5.1-.632.154-3.271,1.074-6.571,2.064-9.793,3.257a63.476,63.476,0,0,0-15.691,8.13,24.823,24.823,0,0,0-7.947,8.832,12.927,12.927,0,0,0-1.376,4.682H99.667c1.748,0,1.748,0,1.846-1.783.015-.155.022-.3.036-.456A33.077,33.077,0,0,1,111.012,47.1c.927-.948,1.924-1.825,3.061-2.9m43.084-.021c-.035.063-.077.126-.113.2.12.112.239.239.365.344,7.26,6.22,11.451,14.02,12.082,23.623.05.682.232.934.969.927,7.014-.028,14.034-.014,21.047-.014.267,0,.541-.028.85-.049a14.422,14.422,0,0,0-2.029-5.862,27.041,27.041,0,0,0-8.263-8.354,71.514,71.514,0,0,0-17.748-8.523c-2.365-.814-4.773-1.53-7.16-2.288m8.508,27.084a30.155,30.155,0,0,0-29.983-30.328,30.465,30.465,0,0,0-.064,60.93c16.646.035,30-13.564,30.047-30.6M135.632,37.049a193.383,193.383,0,0,1,25.737,1.622,131.721,131.721,0,0,1,29.71,7.111,60.816,60.816,0,0,1,17.488,9.653,25.514,25.514,0,0,1,6.795,8.094c3.075,6.059,2.458,11.907-1.165,17.523a31.066,31.066,0,0,1-8.649,8.53,72.518,72.518,0,0,1-19.355,9.162,137.955,137.955,0,0,1-24.494,5.377,202.3,202.3,0,0,1-39.16,1.278,158.769,158.769,0,0,1-33.3-5.329,82.087,82.087,0,0,1-21.693-9.105,35.542,35.542,0,0,1-10.06-8.895c-5.237-7.1-5.062-15.241.463-22.121a36.977,36.977,0,0,1,9.6-8.171A81.546,81.546,0,0,1,88.034,43.1a153.94,153.94,0,0,1,28.531-5.181q9.521-.883,19.067-.87" fill="#1a1818"/>
    <path id="Path_2" data-name="Path 2" d="M219.172,71.02a3.955,3.955,0,0,1,0,.814,17.2,17.2,0,0,1-.112,1.791,20.917,20.917,0,0,1-3.25,8.789c6.465-3.285,10.116-7.027,10.116-10.987s-3.651-7.694-10.116-10.987a20.949,20.949,0,0,1,3.25,8.8,16.931,16.931,0,0,1,.112,1.783m-167.337.814a5.923,5.923,0,0,1,0-.814,15.254,15.254,0,0,1,.12-1.783,21.044,21.044,0,0,1,3.25-8.8c-6.466,3.293-10.123,7.028-10.123,10.987s3.657,7.7,10.123,10.987a21.012,21.012,0,0,1-3.25-8.789,15.493,15.493,0,0,1-.12-1.791" fill="#1a1818"/>
  </g>
</svg>
