<svg width="215" height="84" viewBox="0 0 215 84" fill="none" xmlns="http://www.w3.org/2000/svg">
<path fill-rule="evenodd" clip-rule="evenodd" d="M0 41.75V83H8H16V65.25V47.5H31H46V65.25V83H54.25H62.5V41.75V0.5H54.25H46V16.25V32H31H16V16.25V0.5H8H0V41.75ZM77 41.788V83.076L98.125 82.8805C121.185 82.6665 121.237 82.661 127.5 79.4995C130.612 77.929 134.87 73.695 136.447 70.6035C139.898 63.84 139.838 54.081 136.304 47.1065C134.849 44.234 131.026 40.5815 128.125 39.2925C126.23 38.4505 125.316 37.5 126.4 37.5C126.62 37.5 128.045 36.3905 129.566 35.035C131.489 33.3205 132.776 31.6065 133.79 29.41C135.139 26.486 135.247 25.8205 135.227 20.5C135.209 15.7545 135.009 14.2565 134.086 11.9265C132.625 8.2425 129.611 4.873 126.348 3.2765C121.25 0.782001 118.441 0.517999 96.875 0.508499L77 0.5V41.788ZM170.249 1.125C168.508 6.062 142.5 82.564 142.5 82.747C142.5 82.886 146.177 83 150.671 83H158.841L159.461 80.875C159.802 79.7065 161.102 75.5435 162.349 71.625L164.617 64.5H178.531H192.444L194.256 70.375C195.253 73.6065 196.547 77.769 197.133 79.625L198.197 83H206.577H214.957L201.104 41.755L187.25 0.509998L178.859 0.505001C172.594 0.501501 170.413 0.6585 170.249 1.125ZM113.814 15.241C117.936 16.465 119.685 19.0705 119.697 24C119.707 28.0925 118.291 30.861 115.316 32.566C113.332 33.703 112.853 33.75 103.25 33.75H93.25L93.114 24.125L92.9785 14.5H102.148C108.794 14.5 112.006 14.704 113.814 15.241ZM183.686 36.274C186.059 43.9875 188 50.456 188 50.649C188 50.842 183.725 51 178.5 51C173.275 51 169 50.8935 169 50.764C169 50.529 177.762 22.9305 178.29 21.5C178.537 20.8335 178.612 20.8335 178.97 21.5C179.192 21.9125 181.314 28.561 183.686 36.274ZM117.089 47.3445C124.809 50.867 124.755 64.493 117.008 67.9285C115.638 68.5355 112.79 68.751 104.125 68.902L93 69.0965V57.8815C93 51.7135 93.1685 46.496 93.375 46.2875C93.5815 46.079 98.475 45.9915 104.25 46.093C113.672 46.259 114.99 46.3875 117.089 47.3445Z" fill="black"/>
</svg>
