<svg width="128" height="23" viewBox="0 0 128 23" fill="none" xmlns="http://www.w3.org/2000/svg">
<path d="M0.74 22V0.999999H3.92V9.85H7.7V0.999999H10.88V22H7.7V12.85H3.92V22H0.74ZM19.193 22.3C17.673 22.3 16.443 21.84 15.503 20.92C14.563 19.98 14.093 18.75 14.093 17.23V5.77C14.093 4.25 14.563 3.03 15.503 2.11C16.443 1.17 17.673 0.699999 19.193 0.699999C20.713 0.699999 21.943 1.17 22.883 2.11C23.823 3.03 24.293 4.25 24.293 5.77V17.23C24.293 18.75 23.823 19.98 22.883 20.92C21.943 21.84 20.713 22.3 19.193 22.3ZM19.193 19.3C19.793 19.3 20.263 19.12 20.603 18.76C20.943 18.4 21.113 17.89 21.113 17.23V5.77C21.113 5.11 20.943 4.6 20.603 4.24C20.263 3.88 19.793 3.7 19.193 3.7C18.593 3.7 18.123 3.88 17.783 4.24C17.443 4.6 17.273 5.11 17.273 5.77V17.23C17.273 17.89 17.443 18.4 17.783 18.76C18.123 19.12 18.593 19.3 19.193 19.3ZM32.3473 22.3C30.8273 22.3 29.5973 21.84 28.6573 20.92C27.7173 19.98 27.2473 18.75 27.2473 17.23V5.77C27.2473 4.25 27.7173 3.03 28.6573 2.11C29.5973 1.17 30.8273 0.699999 32.3473 0.699999C33.8673 0.699999 35.0973 1.17 36.0373 2.11C36.9773 3.03 37.4473 4.25 37.4473 5.77V17.23C37.4473 18.75 36.9773 19.98 36.0373 20.92C35.0973 21.84 33.8673 22.3 32.3473 22.3ZM32.3473 19.3C32.9473 19.3 33.4173 19.12 33.7573 18.76C34.0973 18.4 34.2673 17.89 34.2673 17.23V5.77C34.2673 5.11 34.0973 4.6 33.7573 4.24C33.4173 3.88 32.9473 3.7 32.3473 3.7C31.7473 3.7 31.2773 3.88 30.9373 4.24C30.5973 4.6 30.4273 5.11 30.4273 5.77V17.23C30.4273 17.89 30.5973 18.4 30.9373 18.76C31.2773 19.12 31.7473 19.3 32.3473 19.3ZM40.6716 0.999999H45.6516C47.1716 0.999999 48.3816 1.46 49.2816 2.38C50.1816 3.28 50.6316 4.49 50.6316 6.01V16.99C50.6316 18.51 50.1816 19.73 49.2816 20.65C48.3816 21.55 47.1716 22 45.6516 22H40.6716V0.999999ZM45.5016 19C46.1216 19 46.6016 18.83 46.9416 18.49C47.2816 18.15 47.4516 17.67 47.4516 17.05V5.95C47.4516 5.33 47.2816 4.85 46.9416 4.51C46.6016 4.17 46.1216 4 45.5016 4H43.8516V19H45.5016ZM67.7218 11.14C68.5018 11.5 69.0918 12.03 69.4918 12.73C69.9118 13.43 70.1218 14.28 70.1218 15.28V16.99C70.1218 18.51 69.6718 19.73 68.7718 20.65C67.8718 21.55 66.6618 22 65.1418 22H59.8318V0.999999H64.8718C66.3918 0.999999 67.6018 1.46 68.5018 2.38C69.4018 3.28 69.8518 4.49 69.8518 6.01V7.12C69.8518 9 69.1418 10.34 67.7218 11.14ZM63.0118 4V9.7H64.4218C65.1818 9.7 65.7418 9.52 66.1018 9.16C66.4818 8.78 66.6718 8.21 66.6718 7.45V5.95C66.6718 5.33 66.5018 4.85 66.1618 4.51C65.8218 4.17 65.3418 4 64.7218 4H63.0118ZM66.9418 14.95C66.9418 14.19 66.7518 13.63 66.3718 13.27C66.0118 12.89 65.4518 12.7 64.6918 12.7H63.0118V19H64.9918C65.6118 19 66.0918 18.83 66.4318 18.49C66.7718 18.15 66.9418 17.67 66.9418 17.05V14.95ZM83.1359 0.999999L78.8759 13.21V22H75.6959V13.21L71.4359 0.999999H74.8259L77.2859 9.01L79.8059 0.999999H83.1359ZM97.7424 17.35H94.3224L93.6324 22H90.4524L93.9324 0.999999H98.1924L101.672 22H98.4324L97.7424 17.35ZM97.3224 14.29L96.0324 5.5L94.7424 14.29H97.3224ZM104.129 0.999999H107.309V22H104.129V0.999999ZM117.919 22L115.609 13.33H113.959V22H110.779V0.999999H115.759C117.279 0.999999 118.489 1.46 119.389 2.38C120.289 3.28 120.739 4.49 120.739 6.01V8.32C120.739 9.28 120.549 10.13 120.169 10.87C119.789 11.61 119.249 12.19 118.549 12.61L121.219 22H117.919ZM113.959 10.33H115.609C116.229 10.33 116.709 10.16 117.049 9.82C117.389 9.48 117.559 9 117.559 8.38V5.95C117.559 5.33 117.389 4.85 117.049 4.51C116.709 4.17 116.229 4 115.609 4H113.959V10.33ZM124.026 18.85H127.206V22H124.026V18.85Z" fill="black"/>
</svg>
