<svg width="708" height="123" viewBox="0 0 708 123" fill="none" xmlns="http://www.w3.org/2000/svg">
<path d="M657.724 95.8911L639.918 95.9141L639.941 113.722L657.747 113.699L657.724 95.8911Z" fill="black"/>
<path fill-rule="evenodd" clip-rule="evenodd" d="M697.457 26.5173C692.268 15.1222 678.824 10.0909 667.429 15.2796C656.034 20.4683 651.003 33.9122 656.192 45.3073C661.38 56.7024 674.824 61.7337 686.219 56.545C697.615 51.3563 702.646 37.9124 697.457 26.5173ZM664.402 8.63049C679.469 1.76963 697.245 8.42228 704.106 23.4896C710.967 38.5569 704.314 56.3333 689.247 63.1941C674.18 70.055 656.403 63.4023 649.543 48.335C642.682 33.2677 649.334 15.4914 664.402 8.63049Z" fill="black"/>
<path d="M550.321 12.6678L532.497 12.6908L532.627 113.859L550.453 113.836L550.321 12.6678ZM53.7811 13.31L35.9534 13.3331L36.0073 55.2258L19.4657 55.2468L19.4117 13.3541L1.58398 13.3771L1.71541 114.546L19.5431 114.522L19.4889 70.4945L36.0306 70.4734L36.0848 114.501L53.9125 114.478L53.7811 13.31ZM99.5234 116.843C116.963 116.82 127.214 105.407 127.182 84.7467L127.128 42.854C127.102 22.1922 116.826 10.8071 99.386 10.8292C82.0733 10.8522 71.8273 22.2641 71.8541 42.9249L71.9081 84.8186C71.9348 105.477 82.2107 116.865 99.5234 116.843ZM99.5021 100.71C93.6018 100.718 90.2631 96.3371 90.2508 87.2158L90.1908 40.4808C90.1795 31.3595 93.507 26.9695 99.4073 26.9628C105.434 26.9541 108.773 31.3365 108.785 40.4559L108.846 87.1918C108.857 96.3112 105.528 100.702 99.5021 100.71ZM172.703 116.748C190.145 116.725 200.394 105.311 200.362 84.6525L200.308 42.7588C200.282 22.0979 190.008 10.7119 172.566 10.7349C155.253 10.7569 145.009 22.1688 145.036 42.8307L145.09 84.7234C145.117 105.383 155.391 116.77 172.703 116.748ZM172.682 100.616C166.782 100.623 163.445 96.2429 163.433 87.1205L163.373 40.3856C163.36 31.2642 166.689 26.8753 172.586 26.8676C178.616 26.8599 181.952 31.2413 181.967 40.3616L182.028 87.0966C182.039 96.2159 178.71 100.607 172.682 100.616ZM218.437 114.265L242.42 114.235C261.656 114.21 271.772 101.659 271.741 77.8639L271.703 47.9407C271.673 25.1397 261.397 13.0436 242.417 13.0676L218.307 13.0992L218.437 114.265ZM236.251 99.8508L236.158 27.4679L241.672 27.4602C249.88 27.4496 253.95 33.5708 253.968 47.1064L254.01 79.3077C254.027 92.5592 249.715 99.8306 241.765 99.8411L236.251 99.8508ZM352.582 59.9872C363.163 56.9933 364.41 51.2379 364.396 41.2655L364.392 37.8443C364.373 22.7437 356.667 12.9179 339.61 12.9399L314.602 12.9725L314.732 114.141L340.509 114.107C357.439 114.086 365.632 103.816 365.609 86.5754L365.606 83.5823C365.589 70.4747 363.852 62.2678 352.582 59.9872ZM337.443 26.6223C343.857 26.6147 346.771 30.3157 346.781 38.437L346.785 41.7142C346.797 51.4046 344.021 55.3679 337.609 55.3755L332.481 55.3822L332.444 26.6291L337.443 26.6223ZM347.868 86.313C347.88 95.5754 344.978 100.424 338.693 100.432L332.539 100.44L332.498 68.5218L338.268 68.5151C344.551 68.5064 347.85 72.6345 347.863 82.7499L347.868 86.313ZM396.201 114.035L414.025 114.012L413.979 77.678L433.004 12.8194L414.403 12.8433L407.611 46.624C406.719 51.1832 405.745 60.2548 405.237 65.242L404.978 60.0208C404.419 55.5074 403.57 51.0346 402.436 46.6304L395.301 12.8683L376.7 12.8922L396.151 77.701L396.201 114.035ZM497.111 113.905L514.935 113.882L497.106 12.7389L473.767 12.7696L456.068 113.958L473.894 113.935C473.894 113.935 475.284 104.394 477.197 90.2779C477.327 89.3229 493.582 89.2656 493.74 90.2568C494.605 95.7378 497.106 113.905 497.106 113.905L497.111 113.905ZM479.104 75.8844L485.361 30.4832L491.804 75.8672L479.104 75.8844Z" fill="black"/>
<path d="M603.019 113.769L621.62 113.745L608.735 67.8793C615.525 64.1655 619.492 56.4634 619.476 44.4969L619.47 39.6527C619.319 22.696 611.868 12.5922 592.888 12.6131L568.651 12.6448L568.783 113.813L586.607 113.79L586.544 72.9281C586.544 72.9281 592.916 72.7872 593.325 74.5575C594.317 78.8304 603.017 113.769 603.017 113.769L603.019 113.769ZM586.532 59.9287L586.49 26.3013L591.747 26.2946C598.547 26.285 601.119 29.8433 601.126 39.1056L601.134 45.5179C601.147 55.3513 598.715 59.9123 591.791 59.922L586.532 59.9287Z" fill="black"/>
<path d="M673.536 34.5992L673.521 23.8207L676.812 23.8166C679.841 23.8124 681.072 25.5671 681.071 28.9822C681.076 32.4924 679.805 34.5904 676.821 34.595L673.536 34.5992ZM681.59 53.219L688.876 53.2092L683.237 38.1475C686.441 36.7276 688.235 33.5076 688.229 28.9724C688.221 22.5842 685.057 18.5892 677.815 18.5983L666.708 18.6111L666.753 53.2365L673.554 53.2279L673.535 39.5274L676.958 39.5222L681.59 53.219Z" fill="black"/>
</svg>
